<?xml version="1.0" standalone="no"?>
<!DOCTYPE svg PUBLIC "-//W3C//DTD SVG 20010904//EN"
 "http://www.w3.org/TR/2001/REC-SVG-20010904/DTD/svg10.dtd">
<svg version="1.0" xmlns="http://www.w3.org/2000/svg"
 width="530.000000pt" height="458.000000pt" viewBox="0 0 530.000000 458.000000"
 preserveAspectRatio="xMidYMid meet">

<g transform="translate(0.000000,458.000000) scale(0.100000,-0.100000)"
fill="#000000" stroke="none">
<path d="M2495 4339 c-93 -10 -221 -53 -297 -99 l-61 -37 -68 28 c-129 52
-360 98 -499 99 l-36 0 27 -107 c40 -161 59 -305 69 -533 9 -203 17 -254 54
-330 l18 -36 -38 -54 c-118 -174 -161 -397 -118 -620 47 -252 208 -525 450
-766 153 -152 383 -323 552 -408 33 -17 34 -17 99 19 452 248 812 644 936
1030 36 112 47 182 47 305 0 164 -47 319 -134 441 l-34 47 24 60 c34 84 44
147 44 272 0 184 29 417 75 593 l22 87 -34 0 c-134 0 -340 -40 -482 -93 -79
-30 -91 -32 -107 -19 -37 28 -180 90 -244 105 -86 20 -179 26 -265 16z m211
-60 c69 -13 199 -61 232 -87 l23 -18 -71 -48 c-131 -90 -238 -214 -287 -331
-10 -25 -20 -45 -23 -45 -3 0 -13 20 -23 45 -48 114 -149 233 -273 321 -38 26
-73 51 -78 55 -14 13 151 86 229 103 85 18 191 20 271 5z m-544 -341 c4 -43
39 -51 56 -13 12 27 31 31 64 14 16 -9 19 -17 14 -44 -5 -27 -2 -35 20 -49 23
-16 27 -16 43 -2 24 22 34 20 61 -9 l23 -25 -23 -25 c-22 -23 -22 -25 -6 -49
13 -21 22 -24 45 -20 23 5 32 2 40 -14 20 -38 14 -62 -20 -69 -25 -5 -30 -10
-25 -27 3 -12 6 -26 6 -32 0 -7 11 -15 25 -18 32 -8 39 -25 25 -60 -9 -24 -15
-28 -40 -24 -25 4 -31 0 -41 -25 -11 -27 -10 -32 11 -49 23 -18 23 -21 9 -46
-18 -32 -44 -39 -68 -18 -16 15 -19 14 -40 -8 -18 -20 -21 -28 -12 -44 14 -27
6 -47 -27 -61 -24 -12 -29 -10 -48 14 -18 23 -26 26 -53 20 -17 -4 -28 -11
-25 -16 3 -6 3 -21 0 -35 -6 -22 -11 -25 -44 -22 -34 3 -37 6 -40 36 -2 23 -8
32 -22 32 -10 0 -24 2 -32 5 -7 3 -20 -8 -30 -25 -16 -28 -19 -29 -48 -18 -30
10 -32 13 -26 49 5 31 2 40 -16 53 -19 14 -24 14 -49 -1 -27 -16 -29 -16 -49
2 -26 23 -26 50 1 68 20 15 20 16 3 42 -14 22 -23 26 -46 21 -21 -4 -30 -1
-38 15 -17 32 -8 62 20 69 19 4 26 13 28 36 3 26 -2 32 -30 44 -27 12 -32 20
-30 40 6 36 18 47 50 42 23 -3 30 1 41 24 11 25 10 30 -8 45 -27 22 -27 41 0
65 19 17 23 17 48 3 25 -15 29 -15 50 2 20 16 22 23 13 49 -9 26 -8 32 11 45
31 22 56 18 69 -10 9 -20 16 -23 37 -18 38 9 41 12 41 37 0 30 7 36 46 36 30
0 33 -3 36 -32z m918 -3 c7 -40 42 -46 58 -10 13 28 19 29 57 15 24 -9 26 -14
21 -44 -6 -29 -3 -36 20 -50 23 -16 27 -16 43 -2 24 22 34 20 61 -9 l23 -25
-22 -24 c-19 -20 -20 -27 -10 -50 11 -23 16 -26 46 -20 29 6 34 3 44 -22 13
-34 2 -58 -29 -62 -18 -3 -21 -9 -19 -37 2 -28 7 -34 30 -39 34 -7 41 -24 27
-60 -9 -24 -15 -28 -40 -24 -24 4 -31 0 -41 -24 -10 -25 -9 -32 11 -53 22 -23
22 -25 6 -50 -18 -28 -47 -33 -66 -10 -11 13 -16 12 -40 -8 -25 -20 -26 -24
-14 -48 14 -29 9 -41 -25 -59 -22 -11 -27 -10 -47 15 -18 23 -26 26 -53 20
-17 -4 -28 -11 -25 -16 3 -6 3 -21 0 -35 -6 -22 -11 -25 -44 -22 -34 3 -37 6
-40 36 -2 23 -8 32 -22 32 -10 0 -24 2 -32 5 -7 3 -20 -8 -30 -25 -16 -28 -19
-29 -48 -18 -30 10 -32 13 -26 49 5 31 2 40 -16 53 -19 14 -24 14 -49 -1 -27
-16 -29 -16 -49 2 -25 23 -26 51 -1 67 18 11 18 14 4 41 -12 25 -19 28 -43 24
-35 -7 -53 11 -48 49 2 21 10 30 28 34 19 4 26 13 28 38 3 29 0 33 -27 38 -31
7 -35 13 -31 49 3 31 17 42 48 37 23 -3 30 1 41 25 11 25 11 29 -8 42 -27 17
-27 43 0 67 19 17 22 17 49 2 27 -15 29 -15 50 7 19 20 20 26 10 46 -11 20
-10 25 10 41 31 25 58 23 72 -7 9 -20 16 -23 37 -18 39 9 41 11 41 44 0 29 2
30 37 27 33 -3 39 -7 43 -33z m-417 -617 c82 -98 84 -105 50 -172 -19 -37
-115 -136 -133 -136 -19 0 -105 92 -128 137 -35 67 -33 74 47 172 41 50 78 91
82 91 3 0 41 -41 82 -92z m41 -418 c15 -15 -42 -69 -86 -82 -51 -15 -108 2
-143 44 -30 35 -25 45 25 51 51 7 193 -2 204 -13z m-415 -96 c9 -20 17 -25 40
-23 19 2 38 -5 59 -23 27 -22 31 -31 26 -57 -6 -29 -4 -32 42 -52 l48 -22 21
27 c28 35 98 38 116 4 6 -13 13 -24 14 -26 2 -2 26 6 54 18 47 21 50 24 44 52
-8 40 37 89 80 85 20 -1 33 4 41 18 6 11 12 22 13 24 5 8 84 -53 122 -94 86
-93 131 -200 131 -310 0 -62 -1 -65 -24 -65 -14 0 -32 10 -40 22 -15 21 -17
21 -51 5 -27 -13 -35 -23 -35 -44 0 -35 -27 -63 -60 -63 -40 0 -70 -73 -35
-86 10 -4 15 -20 15 -45 0 -26 -5 -42 -15 -45 -19 -8 -19 -27 0 -65 12 -23 20
-28 38 -24 15 4 29 0 40 -13 16 -18 15 -22 -33 -85 -28 -37 -78 -96 -112 -132
l-61 -66 -24 23 c-17 16 -22 29 -19 45 4 13 8 33 12 46 4 19 -1 25 -32 36 -40
14 -39 15 -69 -40 -11 -21 -20 -26 -50 -24 -29 2 -41 9 -61 39 -27 40 -32 41
-69 24 -26 -11 -28 -21 -16 -73 6 -24 2 -35 -17 -53 l-24 -23 -30 28 c-44 42
-149 170 -195 238 -150 224 -193 444 -117 605 39 81 101 160 162 205 26 19 50
35 53 35 3 0 11 -12 18 -26z m831 -551 c-1 -21 -66 -168 -75 -168 -5 0 -16 13
-24 29 -18 38 -1 97 36 125 25 21 63 28 63 14z m-499 -543 c20 -6 45 -20 55
-31 19 -21 19 -22 -35 -70 -30 -27 -57 -49 -60 -49 -3 0 -31 23 -61 50 l-55
50 30 25 c26 21 44 29 80 34 6 0 26 -4 46 -9z"/>
<path d="M2031 3759 l-44 -20 37 -38 c36 -36 40 -38 72 -28 24 7 41 7 58 -1
21 -9 28 -6 61 28 l38 39 -44 20 c-24 12 -64 21 -89 21 -25 0 -65 -9 -89 -21z"/>
<path d="M1937 3665 c-28 -60 -18 -173 19 -214 3 -3 19 10 37 27 30 29 32 36
32 97 -1 57 -4 68 -30 95 -16 16 -32 30 -35 30 -3 0 -14 -16 -23 -35z"/>
<path d="M2245 3670 c-25 -26 -28 -37 -29 -95 -1 -61 1 -68 31 -97 17 -16 36
-27 42 -24 19 12 43 115 36 154 -8 41 -32 92 -43 92 -5 0 -21 -13 -37 -30z"/>
<path d="M2073 3604 c-15 -24 -15 -29 -2 -53 28 -49 109 -32 109 24 0 54 -77
75 -107 29z"/>
<path d="M2024 3449 l-37 -38 44 -20 c24 -12 64 -21 89 -21 25 0 65 9 89 21
l44 20 -37 38 c-35 36 -41 38 -67 29 -19 -7 -39 -7 -58 0 -26 9 -32 7 -67 -29z"/>
<path d="M2955 3761 c-22 -10 -46 -25 -54 -34 -12 -16 -2 -17 139 -17 141 0
151 1 139 17 -23 27 -91 53 -139 53 -25 0 -63 -9 -85 -19z"/>
<path d="M2850 3651 c-27 -51 -25 -51 190 -51 215 0 217 0 190 51 -10 18 -23
19 -190 19 -167 0 -180 -1 -190 -19z"/>
<path d="M2840 3534 c0 -8 5 -24 10 -35 10 -18 23 -19 190 -19 167 0 180 1
190 19 27 51 25 51 -190 51 -175 0 -200 -2 -200 -16z"/>
<path d="M2901 3423 c23 -27 91 -53 139 -53 48 0 116 26 139 53 12 16 2 17
-139 17 -141 0 -151 -1 -139 -17z"/>
<path d="M2244 2716 c-20 -15 -14 -43 12 -53 20 -8 47 19 39 39 -9 23 -30 29
-51 14z"/>
<path d="M2890 2695 c-10 -12 -10 -18 0 -30 26 -32 68 -8 54 30 -4 8 -14 15
-24 15 -10 0 -23 -7 -30 -15z"/>
<path d="M2320 2564 c0 -9 7 -44 16 -78 13 -52 24 -70 75 -121 32 -33 59 -65
59 -71 0 -18 -45 -54 -69 -54 -34 0 -71 -43 -71 -82 0 -64 53 -103 117 -86 34
9 63 49 63 86 0 10 9 27 21 38 20 18 21 18 85 -54 44 -48 73 -72 88 -72 24 0
96 67 96 89 0 8 -31 49 -70 91 -66 74 -68 78 -51 94 9 9 33 16 52 16 51 0 96
32 110 79 6 22 9 47 5 57 -6 15 -12 12 -46 -21 l-40 -39 -31 31 -31 30 43 41
44 41 -46 1 c-32 0 -54 -6 -72 -20 -27 -22 -52 -82 -44 -104 3 -8 -4 -22 -15
-33 -20 -18 -21 -17 -82 48 -51 55 -71 69 -125 87 -78 26 -81 27 -81 6z"/>
<path d="M2130 2545 c-17 -21 -5 -45 24 -45 27 0 42 26 25 46 -15 18 -33 18
-49 -1z"/>
<path d="M2984 2526 c-10 -26 4 -48 28 -44 17 2 23 10 23 28 0 18 -6 26 -23
28 -13 2 -25 -3 -28 -12z"/>
<path d="M2190 2390 c0 -8 -9 -10 -25 -6 -18 5 -25 2 -25 -9 0 -8 -9 -15 -20
-15 -11 0 -20 -4 -20 -10 0 -5 5 -10 10 -10 6 0 10 -7 10 -15 0 -8 -4 -15 -10
-15 -5 0 -10 -4 -10 -10 0 -5 9 -10 20 -10 11 0 20 -6 20 -13 0 -8 13 -13 35
-13 22 0 35 5 35 13 0 7 6 13 13 13 8 0 13 13 13 34 0 26 -5 36 -19 40 -10 2
-16 9 -13 15 4 5 2 12 -4 16 -5 3 -10 1 -10 -5z"/>
<path d="M2204 2126 c-10 -26 4 -48 28 -44 17 2 23 10 23 28 0 18 -6 26 -23
28 -13 2 -25 -3 -28 -12z"/>
<path d="M2332 1978 c-27 -27 5 -73 38 -53 16 10 12 52 -6 59 -20 8 -18 8 -32
-6z"/>
<path d="M2686 1130 c-67 -12 -135 -56 -160 -105 -19 -37 -21 -56 -21 -261 l0
-220 28 -42 c53 -81 158 -110 334 -92 59 6 110 13 114 15 9 6 -9 87 -22 100
-6 6 -65 10 -134 10 -123 0 -125 0 -152 28 l-28 27 -3 163 c-2 140 0 167 15
197 23 44 54 60 118 60 97 0 95 3 95 -121 0 -59 4 -110 9 -114 15 -9 92 12
110 30 13 13 16 40 16 158 l0 142 -56 11 c-85 17 -208 23 -263 14z"/>
<path d="M540 1095 l0 -35 -60 0 -60 0 0 -38 c0 -54 18 -73 73 -79 l47 -6 0
-77 0 -77 73 -5 c111 -7 137 -33 137 -134 0 -47 -4 -60 -28 -84 -33 -32 -87
-44 -152 -32 -40 7 -45 11 -51 41 -9 45 -20 53 -78 59 l-51 5 0 -101 0 -101
38 -11 c61 -18 262 -25 308 -10 63 20 112 57 135 103 32 62 31 207 -3 275 -26
53 -88 92 -145 92 -30 0 -33 3 -33 30 l0 30 91 0 92 0 -7 43 c-9 60 -34 77
-112 77 l-64 0 0 35 0 35 -75 0 -75 0 0 -35z"/>
<path d="M3700 1113 c0 -40 38 -81 89 -98 28 -9 56 -25 61 -35 14 -26 12 -70
-2 -74 -7 -2 -32 -9 -56 -15 -53 -15 -110 -64 -133 -116 -25 -55 -25 -185 0
-240 22 -49 76 -98 128 -116 22 -8 78 -14 133 -14 77 1 105 5 145 23 100 46
125 91 125 224 -1 140 -32 194 -136 234 l-44 17 0 58 c0 67 -13 85 -68 95 -52
9 -89 30 -97 54 -6 17 -15 20 -76 20 -59 0 -69 -3 -69 -17z m303 -350 c35 -17
47 -49 47 -118 0 -69 -26 -102 -90 -113 -63 -11 -117 0 -148 32 -24 23 -27 34
-27 91 0 57 3 68 27 91 42 43 126 50 191 17z"/>
<path d="M1125 954 c-16 -2 -54 -7 -82 -10 -47 -5 -53 -8 -53 -28 0 -45 21
-84 51 -96 23 -10 45 -10 100 -1 57 9 75 9 103 -3 47 -20 56 -42 56 -139 0
-70 -4 -89 -20 -110 -26 -33 -70 -41 -151 -29 -92 14 -126 2 -139 -49 -6 -23
-9 -47 -6 -54 6 -17 96 -29 208 -29 75 1 95 5 145 30 45 23 64 39 83 74 23 41
25 55 25 170 0 115 -2 129 -25 170 -42 75 -169 120 -295 104z"/>
<path d="M1730 950 c-89 -16 -151 -57 -178 -120 -18 -40 -31 -405 -15 -421 13
-13 102 5 122 25 13 14 17 43 19 164 2 81 8 159 13 174 19 47 99 70 188 52
l31 -6 0 -120 0 -119 38 6 c86 15 92 24 92 150 l0 84 46 7 c74 11 125 -1 157
-36 27 -30 27 -32 27 -170 0 -186 6 -200 98 -215 l42 -7 0 202 c0 181 -2 205
-20 240 -42 83 -119 115 -260 111 -165 -6 -203 -6 -280 0 -41 4 -95 3 -120 -1z"/>
<path d="M4487 949 c-77 -11 -134 -44 -172 -97 l-30 -44 -3 -205 -3 -205 43 7
c100 15 102 19 103 205 1 91 6 153 14 167 38 72 207 70 240 -3 6 -15 11 -80
11 -159 0 -181 7 -195 98 -209 l42 -6 0 197 c0 177 -2 201 -20 239 -44 90
-173 135 -323 113z"/>
<path d="M3114 918 c8 -45 55 -84 121 -103 30 -8 80 -22 110 -30 69 -20 78
-38 73 -153 -4 -107 -18 -122 -117 -122 -72 0 -91 10 -91 46 0 31 -36 54 -82
54 l-38 0 0 -89 0 -89 53 -13 c28 -7 104 -13 167 -14 96 0 122 3 154 20 73 37
81 57 84 218 2 101 -1 149 -10 167 -19 35 -79 66 -180 90 -48 12 -92 28 -99
36 -8 10 -34 14 -81 14 l-70 0 6 -32z"/>
</g>
</svg>
